<?xml version="1.0" encoding="UTF-8"?>
<svg version="1.1" viewBox="0 0 301.27 315.12" xmlns="http://www.w3.org/2000/svg" xmlns:xlink="http://www.w3.org/1999/xlink">
 <defs>
  <linearGradient id="h" x1="85.987" x2="45.832" y1="-142.14" y2="-198.85" gradientTransform="translate(-65.947 -14.204)" gradientUnits="userSpaceOnUse" xlink:href="#b"/>
  <linearGradient id="b">
   <stop stop-color="#003c87" offset="0"/>
   <stop stop-color="#5cbcf0" offset="1"/>
  </linearGradient>
  <linearGradient id="g" x1="115.85" x2="282.27" y1="-94.538" y2="-203.84" gradientTransform="translate(-65.947 -14.204)" gradientUnits="userSpaceOnUse" xlink:href="#b"/>
  <filter id="i" color-interpolation-filters="sRGB">
   <feGaussianBlur stdDeviation="0.67606776"/>
  </filter>
  <linearGradient id="f" x1="188.59" x2="77.437" y1="-174.11" y2="-192.94" gradientTransform="translate(-65.947 -14.204)" gradientUnits="userSpaceOnUse">
   <stop stop-color="#003c87" offset="0"/>
   <stop stop-color="#5cbcf0" offset=".7013"/>
   <stop stop-color="#5ce1f0" offset="1"/>
  </linearGradient>
  <radialGradient id="d" cx="195" cy="72.404" r="26.403" gradientTransform="matrix(1.1848 -.20889 .2063 .79717 -124.64 -206.12)" gradientUnits="userSpaceOnUse">
   <stop stop-color="#0ff" offset="0"/>
   <stop stop-color="#0ff" stop-opacity="0" offset="1"/>
  </radialGradient>
  <linearGradient id="e" x1="154.73" x2="106.72" y1="140.32" y2="94.159" gradientTransform="translate(-67.541 -258.74)" gradientUnits="userSpaceOnUse">
   <stop stop-color="#003c87" offset="0"/>
   <stop stop-color="#5cbcf0" offset=".57939"/>
   <stop stop-color="#5ce1f0" offset="1"/>
  </linearGradient>
  <radialGradient id="a" cx="160.5" cy="97.688" r="9.5" gradientTransform="matrix(1 0 0 .94737 0 5.1414)" gradientUnits="userSpaceOnUse">
   <stop stop-color="#fff" offset="0"/>
   <stop stop-color="#fff" stop-opacity="0" offset="1"/>
  </radialGradient>
  <filter id="j" x="-.09228" y="-.82026" width="1.1846" height="2.6405" color-interpolation-filters="sRGB">
   <feGaussianBlur stdDeviation="2.1750499"/>
  </filter>
  <radialGradient id="c" cx="444.77" cy="313.51" r="33.439" gradientTransform="matrix(1 0 0 .40737 0 185.8)" gradientUnits="userSpaceOnUse">
   <stop offset="0"/>
   <stop stop-opacity="0" offset="1"/>
  </radialGradient>
 </defs>
 <g transform="translate(-192.98 -370.36)">
  <g transform="matrix(1.1871 0 0 1.1535 264.15 666.2)">
   <path d="m-47.456-239.51c-11.433 0 2.4681 23.628 29.568 50.32 16.097 15.855 28.833 33.827 28.833 40.587 0 6.6748 3.989 17.902 8.8152 24.793 11.767 16.8 5.4879 48.057-11.019 54.728-12.26 4.9539-12.35 5.141 0.7346 5.5095 10.087 0.28444 15.438 3.1128 15.438 14.321 0 8.0806 0.42889 15.431 3.6611 15.431 2.9865-13.441-1.4699-21.987 1.8434-26.016 4.8024-1.9316 13.426 17.644 12.864 16.093-2.3418-6.472 4.007-8.6864-6.0763-19.828-10.725-11.85-5.9033-40.77 6.795-40.77 4.2224 0 10.774 1.2389 11.656 5.3725 1.2612 5.9147 5.3797 14.004-4.2886 21.218-2.0324 1.5165-5.7329-0.88822-9.0199 0.95709-7.8003 4.3791-5.3113 4.2067 6.2619 4.7551 11.528 0.54625 11.933 12.437 11.933 19.664 0 6.8282 2.2039 13.244 3.4755 9.5557 0.70001-2.0302 4.4078-6.027 2.5711-8.9988-0.97966-1.5851-5.1373-15.727-3.6619-15.95 1.3514-0.2051 8.1668 13.391 11.008 14.481 10.117 3.8824 8.5321 5.6414-1.2938-9.3543-13.112-20.014-11.646-35.794 1.4771-35.824 17.786-0.03525 43.245-22.561 58.949-47.437 5.5484-8.7893 12.262-14.148 19.194-20.318 3.4545-3.0746 7.5894-5.8219 14.6-9.9288l-19.876-0.62986 36.106-8.8777-20.209-4.6065c-4.3997-0.93783-9.2504-2.8934-13.284-5.5365-14.187-9.2953-19.999-7.9183-57.666 12.672-22.121 12.092-47.536 4.2171-95.865-29.568-21.19-14.813-40.75-26.813-43.525-26.813z" fill="url(#h)"/>
   <path d="m19.76-126.76c-2.2203 7.332 22.755 23.327 24.242 22.421 4.2224 0 10.774 1.2389 11.656 5.3725 8.0744 4.048 17.529 0.54962 18.463 0.50426 17.786-0.03525 43.245-22.561 58.949-47.437 5.5484-8.7893 12.262-14.148 19.194-20.318 3.4545-3.0746 7.5894-5.8219 14.6-9.9288l-19.876-0.62986 36.106-8.8777-20.209-4.6065c-4.3997-0.93783-9.2504-2.8934-13.284-5.5365-15.923 30.335 4.1431 26.783-0.45327 31.444-9.8731 10.011-26.976 3.7702-34.308 10.319-31.427 28.066-39.901 39.799-95.078 27.274z" fill="url(#g)"/>
   <path d="m13.959-134.8c23.928 44.776 79.567 43.611 100.5 11.5-32.9 24.945-71.472 13.424-100.5-11.5z" fill="#002758" filter="url(#i)"/>
   <path d="m12.962-149.51c3.2593 54.519 81.685 30.376 99.74-0.73855 6.7432-13.931-20.281-20.623-29.314-14.402-20.531 15.933-50.732 7.6763-70.426 15.14z" fill="#002758"/>
   <path d="m-47.456-239.51c-11.433 0 6.8994 15.135 33.999 41.827 44.142 38.136 58.986 40.042 102.58 34.793 21.302-28.348 2.809-20.239 2.809-20.239-21.71 12.815-47.536 4.2171-95.865-29.568-21.19-14.813-40.75-26.813-43.525-26.813z" fill="url(#f)"/>
   <path d="m157.8-186.05c2.8904 11.169-5.449 25.647-22.726 28.693-6.0291 1.063-21.477 7.4561-22.948 1.6416-3.0614-12.099-19.811-10.925-21.693-18.196-2.8904-11.169 16.158-18.261 35.282-25 16.546-5.8306 29.195 1.6926 32.085 12.862z" fill="#226bad" fill-rule="evenodd"/>
   <path d="m182.62-185.62-36.551 9.2565 0.11868-4.1535z" fill="#65531d"/>
   <path d="m157.8-186.05c2.8904 11.169-5.449 25.647-22.726 28.693-6.0291 1.063-16.676 4.8712-18.147-0.9433-3.0614-12.099-19.811-9.4475-21.693-16.719-2.8904-11.169 11.357-17.153 30.481-23.892 16.546-5.8306 29.195 1.6926 32.085 12.862z" fill="url(#d)" fill-rule="evenodd"/>
   <path transform="matrix(.87097 0 0 .90741 -40.455 -251.91)" d="m209.91 69.944a4.3673 3.8038 0 1 1 -8.7347 0 4.3673 3.8038 0 1 1 8.7347 0z" fill="#fff" fill-rule="evenodd"/>
   <path transform="matrix(.74194 0 0 .75926 -13.228 -241.83)" d="m209.91 69.944a4.3673 3.8038 0 1 1 -8.7347 0 4.3673 3.8038 0 1 1 8.7347 0z" fill="#333" fill-rule="evenodd"/>
   <path d="m153.08-193.72c-5.9416 5.8227-6.8759 7.93-7.7485 15.638l37.615-7.6076c-8.3095-2.1653-21.413-4.7446-29.867-8.0303z" fill="#d3a92e"/>
   <path d="m145.61-178.08c1.1398 4.8951 3.6952 8.5531 7.3258 11.693 9.3111-7.2512 14.405-9.4672 24.513-15.497z" fill="#d3a92e"/>
   <path d="m9.6384-152.46c3.3667 54.519 84.378 30.376 103.03-0.73855 6.9656-13.931-20.949-20.623-30.281-14.402-21.208 15.933-52.405 7.6763-72.748 15.14z" fill="#1b61a6"/>
   <path d="m10.192-152.37c-1.1638 3.722 3.6866 19.62 12.126 25.73 24.284 17.365 75.936-2.5165 90.348-26.561 6.9656-13.931-20.949-20.623-30.281-14.402-21.208 15.933-72.194 15.233-72.194 15.233z" fill="url(#e)"/>
   <path d="m55.657-98.968c1.2612 5.9147 5.3797 14.004-4.2886 21.218-2.0324 1.5165-5.7329-0.88822-9.0199 0.95709-7.8003 4.3791-5.3113 4.2067 6.2619 4.7551 11.528 0.54625 11.933 12.437 11.933 19.664 0 6.8282 2.2039 13.244 3.4755 9.5557 0.70001-2.0302 4.4078-6.027 2.5711-8.9988-0.97966-1.5851-5.1373-15.727-3.6619-15.95 1.3514-0.2051 8.1668 13.391 11.008 14.481 10.117 3.8824 8.5321 5.6414-1.2938-9.3543-13.112-20.014-9.4561-32.776-4.2044-34.699-5.1708-1.0206-8.9428-1.3422-12.781-1.6287z" fill="#deac20"/>
   <path d="m25.812-101.51c0.12997 16.274-6.5957 28.193-17.071 32.426-12.26 4.9539-12.35 5.141 0.7346 5.5095 10.087 0.28444 15.438 3.1128 15.438 14.321 0 8.0806 0.42889 15.431 3.6611 15.431 2.9865-13.441-1.4699-21.987 1.8434-26.016 4.8024-1.9316 13.426 17.644 12.864 16.093-2.3418-6.472 4.007-8.6864-6.0763-19.828-10.725-11.85-3.6877-37.077 0.51732-36.708-5.5756 3.6478-12.036-7.3622-11.912-1.2271z" fill="#deac20"/>
   <path d="m146.54-183.42c12.952-1.8961 23.814-1.701 35.72-2.5515-10.819-1.2263-17.626-2.6886-32.457-3.6788z" fill="#f1da6d"/>
   <path d="m149.75-169.36c7.3802-2.3477 17.911-7.978 27.295-12.342l-24.091 14.834z" fill="#ad8e32"/>
   <path d="m153.54-194.1c-5.8189 4.2462-8.3896 10.525-8.1404 15.962 0.24918 5.4376 3.0923 9.9389 7.4656 11.453l1.0839-0.40347c-3.8728-1.3411-7.6706-6.1059-7.9055-11.231-0.23486-5.1251 2.2434-10.8 7.7935-14.85z" color="#000000" fill="#65531d" style="block-progression:tb;text-indent:0;text-transform:none"/>
   <path transform="matrix(1.8421 0 0 1.5556 -208.7 -312.01)" d="m170 97.688a9.5 9 0 1 1 -19 0 9.5 9 0 1 1 19 0z" fill="url(#a)" fill-rule="evenodd" opacity=".79646"/>
   <path transform="matrix(1.8421 0 0 1.5556 -175.7 -341.01)" d="m170 97.688a9.5 9 0 1 1 -19 0 9.5 9 0 1 1 19 0z" fill="url(#a)" fill-rule="evenodd" opacity=".79646"/>
   <path d="m10.85-144.27c2.6288 4.6828 11.863 8.0785 20.468 4.5-8.8076 7.0529-18.986 2.1792-20.468-4.5z" fill="#002758"/>
   <path d="m15.345-134.4c2.3289 2.6089 12.131 4.8441 16.923 1.25-2.6902 4.9838-13.901 5.2301-16.923-1.25z" fill="#002758"/>
   <path d="m9.8687-150.05c4.4164 5.7582 14.477 6.5271 20.25 2.864-8.8076 7.0529-18.768 3.8152-20.25-2.864z" fill="#002758"/>
   <path d="m14.8-135.6c3.3105 2.4998 11.149 5.9348 16.923 2.7769-2.472 3.1297-13.901 3.7032-16.923-2.7769z" fill="#1d64a8"/>
   <path d="m11.201-144c3.3105 2.4998 13.549 7.4617 19.322 4.3039-2.472 3.1297-16.3 2.1762-19.322-4.3039z" fill="#1d64a8"/>
   <path d="m9.8921-150.43c3.3105 2.4998 13.439 6.1529 19.649 3.1041-3.2355 3.675-16.627 3.376-19.649-3.1041z" fill="#1d64a8"/>
   <path d="m35.606-99.576c-1.8505 4.5965-5.9408 12.784-2.8651 27.822 0.80779 3.9496 13.857 17.81 10.043 21.624-0.0333 0.0333-0.33201-5.6488-3.7218-9.0386-2.3212-2.3212-5.6993-5.1676-7.9752-7.4436-2.1903-2.1903-3.9051-22.494 0.60042-29.797 0.79847-1.2942-4.5509-6.4208-4.5874-6.5398-0.2627-0.85775 7.6433 3.1998 8.5063 3.3724z" fill="#956806"/>
   <path d="m55.278-100.9c3.5873 2.7415 9.6451 2.7265 13.292 3.4559-12.034 7.4082 1.195 32.237 6.6169 38.488 0.64498 0.74354 5.607 7.5075 5.3459 7.7686-2.1769 2.1769-10.806-14.262-11.431-14.887-6.4142-6.4142-7.8682-26.343-7.9752-26.584-1.1366-2.5569-4.1161-1.2643-4.3059-2.0285z" fill="#956806"/>
   <path d="m40.391-75.65c2.6589-2.1425 6.2864-2.3926 10.102-2.3926 1.8958 0 2.6784-1.0295 4.5785-3.3376-0.15916 1.953-1.9606 5.5067-5.4265 5.2577-3.0582-0.21973-7.6636 1.2933-9.2539 0.47242z" fill="#956806"/>
   <path d="m62.722-67.409c-1.8157 1.9156 3.3212 16.032 1.891 22.862-0.11499 0.54912 2.8844-3.5841 2.5701-5.8203-0.17715-1.2604-1.4392-3.8858-2.2752-6.026-0.40622-1.04-1.7653-6.5865-2.1859-11.016z" fill="#956806"/>
   <path d="m27.091-103.4c-1.3697 16.148-3.3718 18.758-11.718 31.172-5.5215 3.3682-9.7131 5.5905-15.802 7.5922 1.3193-1.3804 3.3414-2.0965 7.3386-3.6101l4.2611-1.8346 4.4386-3.5509c5.7669-5.9208 7.7358-13.294 9.6466-21.069 0.35546-2.4986 0.69956-5.0047 0.59182-7.812 0.32054-1.1395 0.76579-1.1566 1.2428-0.88772z" fill="#956806"/>
   <path d="m27.538-34.49c3.0802-7.677-2.4461-17.873 0.66957-24.104 0.16495-0.32989 3.1399-2.2875 3.1399-1.3289 0 1.2885-2.6696 0.87056-2.1812 4.91 0.08966 0.74157 0.89626 10.269 0.78617 12.199-0.46678 8.1861-2.1953 9.678-2.0796 10.333" fill="#956806"/>
   <path transform="matrix(2.2276 0 0 2.733 -955.66 -870.67)" d="m473.05 313.51a28.284 3.182 0 1 1 -56.569 0 28.284 3.182 0 1 1 56.569 0z" fill="url(#c)" fill-rule="evenodd" filter="url(#j)" opacity=".6008"/>
  </g>
 </g>
</svg>
